<mxfile host="app.diagrams.net" agent="Mozilla/5.0 (Macintosh; Intel Mac OS X 10_15_7) AppleWebKit/537.36 (KHTML, like Gecko) Chrome/136.0.0.0 Safari/537.36" version="27.1.4">
  <diagram id="XrXFo7Jc8A7zsCKMrDrp" name="Page-1">
    <mxGraphModel dx="2189" dy="749" grid="1" gridSize="10" guides="1" tooltips="1" connect="1" arrows="0" fold="1" page="1" pageScale="1" pageWidth="850" pageHeight="1100" math="0" shadow="0">
      <root>
        <mxCell id="0" />
        <mxCell id="1" parent="0" />
        <mxCell id="NCmHVqDDfNP-Vg7z3X-e-50" value="" style="rounded=1;whiteSpace=wrap;html=1;arcSize=5;" vertex="1" parent="1">
          <mxGeometry x="40" y="440" width="200" height="230" as="geometry" />
        </mxCell>
        <mxCell id="NCmHVqDDfNP-Vg7z3X-e-51" value="Controllers&lt;div&gt;(Business Logic)&lt;/div&gt;" style="rounded=1;whiteSpace=wrap;html=1;" vertex="1" parent="1">
          <mxGeometry x="60" y="540" width="160" height="30" as="geometry" />
        </mxCell>
        <mxCell id="NCmHVqDDfNP-Vg7z3X-e-53" value="Routes" style="rounded=1;whiteSpace=wrap;html=1;" vertex="1" parent="1">
          <mxGeometry x="60" y="500" width="160" height="30" as="geometry" />
        </mxCell>
        <mxCell id="NCmHVqDDfNP-Vg7z3X-e-54" value="Middleware&lt;div&gt;Authentication / Security&lt;/div&gt;" style="rounded=1;whiteSpace=wrap;html=1;" vertex="1" parent="1">
          <mxGeometry x="60" y="460" width="160" height="30" as="geometry" />
        </mxCell>
        <mxCell id="NCmHVqDDfNP-Vg7z3X-e-55" value="External Services" style="rounded=1;whiteSpace=wrap;html=1;" vertex="1" parent="1">
          <mxGeometry x="60" y="580" width="160" height="30" as="geometry" />
        </mxCell>
        <mxCell id="NCmHVqDDfNP-Vg7z3X-e-57" value="&lt;div&gt;NGINX&lt;/div&gt;(SSL Termination &amp;amp; Reverse Proxy, optionally Load Balancer)" style="rounded=1;whiteSpace=wrap;html=1;" vertex="1" parent="1">
          <mxGeometry x="-200" y="510" width="200" height="100" as="geometry" />
        </mxCell>
        <mxCell id="NCmHVqDDfNP-Vg7z3X-e-58" value="Users" style="rounded=1;whiteSpace=wrap;html=1;points=[[0,0,0,0,0],[0,0.25,0,0,0],[0,0.5,0,0,0],[0,0.75,0,0,0],[0,1,0,0,0],[0.25,0,0,0,0],[0.25,1,0,0,0],[0.5,0,0,0,0],[0.5,1,0,0,0],[0.75,0,0,0,0],[0.75,1,0,0,0],[1,0,0,0,0],[1,0.25,0,0,0],[1,0.5,0,0,0],[1,0.75,0,0,0],[1,1,0,0,0]];" vertex="1" parent="1">
          <mxGeometry x="-480" y="500" width="80" height="40" as="geometry" />
        </mxCell>
        <mxCell id="NCmHVqDDfNP-Vg7z3X-e-59" value="" style="rounded=1;whiteSpace=wrap;html=1;arcSize=5;" vertex="1" parent="1">
          <mxGeometry x="280" y="390" width="160" height="170" as="geometry" />
        </mxCell>
        <mxCell id="NCmHVqDDfNP-Vg7z3X-e-60" value="Twilio&amp;nbsp;&lt;div&gt;(Mocked in Demo)&lt;/div&gt;" style="rounded=1;whiteSpace=wrap;html=1;" vertex="1" parent="1">
          <mxGeometry x="300" y="400" width="120" height="40" as="geometry" />
        </mxCell>
        <mxCell id="NCmHVqDDfNP-Vg7z3X-e-61" value="Stripe&lt;div&gt;(Test mode in Demo)&lt;/div&gt;" style="rounded=1;whiteSpace=wrap;html=1;" vertex="1" parent="1">
          <mxGeometry x="300" y="455" width="120" height="40" as="geometry" />
        </mxCell>
        <mxCell id="NCmHVqDDfNP-Vg7z3X-e-62" value="Telegram&lt;div&gt;(Mocked in Demo)&lt;/div&gt;" style="rounded=1;whiteSpace=wrap;html=1;" vertex="1" parent="1">
          <mxGeometry x="300" y="510" width="120" height="40" as="geometry" />
        </mxCell>
        <mxCell id="NCmHVqDDfNP-Vg7z3X-e-63" value="MySQL Database" style="rounded=1;whiteSpace=wrap;html=1;" vertex="1" parent="1">
          <mxGeometry x="60" y="620" width="160" height="30" as="geometry" />
        </mxCell>
        <mxCell id="NCmHVqDDfNP-Vg7z3X-e-66" value="Server&amp;nbsp;&lt;div&gt;(Node.js + Express)&lt;/div&gt;" style="text;html=1;align=center;verticalAlign=middle;whiteSpace=wrap;rounded=0;" vertex="1" parent="1">
          <mxGeometry x="70" y="400" width="140" height="30" as="geometry" />
        </mxCell>
        <mxCell id="NCmHVqDDfNP-Vg7z3X-e-68" value="External Services" style="text;html=1;align=center;verticalAlign=middle;whiteSpace=wrap;rounded=0;" vertex="1" parent="1">
          <mxGeometry x="300" y="360" width="120" height="30" as="geometry" />
        </mxCell>
        <mxCell id="NCmHVqDDfNP-Vg7z3X-e-69" style="edgeStyle=orthogonalEdgeStyle;rounded=0;orthogonalLoop=1;jettySize=auto;html=1;exitX=0.5;exitY=1;exitDx=0;exitDy=0;" edge="1" parent="1" source="NCmHVqDDfNP-Vg7z3X-e-50" target="NCmHVqDDfNP-Vg7z3X-e-50">
          <mxGeometry relative="1" as="geometry" />
        </mxCell>
        <mxCell id="NCmHVqDDfNP-Vg7z3X-e-70" value="TypeScript Frontend" style="rounded=1;whiteSpace=wrap;html=1;" vertex="1" parent="1">
          <mxGeometry x="-360" y="530" width="120" height="60" as="geometry" />
        </mxCell>
        <mxCell id="NCmHVqDDfNP-Vg7z3X-e-73" value="Admins" style="rounded=1;whiteSpace=wrap;html=1;" vertex="1" parent="1">
          <mxGeometry x="-480" y="580" width="80" height="40" as="geometry" />
        </mxCell>
        <mxCell id="NCmHVqDDfNP-Vg7z3X-e-76" value="" style="endArrow=classic;html=1;rounded=0;exitX=1;exitY=0.5;exitDx=0;exitDy=0;exitPerimeter=0;entryX=0;entryY=0.5;entryDx=0;entryDy=0;" edge="1" parent="1" source="NCmHVqDDfNP-Vg7z3X-e-58" target="NCmHVqDDfNP-Vg7z3X-e-70">
          <mxGeometry width="50" height="50" relative="1" as="geometry">
            <mxPoint x="-290" y="570" as="sourcePoint" />
            <mxPoint x="-240" y="520" as="targetPoint" />
          </mxGeometry>
        </mxCell>
        <mxCell id="NCmHVqDDfNP-Vg7z3X-e-78" value="" style="endArrow=classic;html=1;rounded=0;exitX=1;exitY=0.5;exitDx=0;exitDy=0;entryX=0;entryY=0.5;entryDx=0;entryDy=0;" edge="1" parent="1" source="NCmHVqDDfNP-Vg7z3X-e-73" target="NCmHVqDDfNP-Vg7z3X-e-70">
          <mxGeometry width="50" height="50" relative="1" as="geometry">
            <mxPoint x="-390" y="570" as="sourcePoint" />
            <mxPoint x="-350" y="630" as="targetPoint" />
          </mxGeometry>
        </mxCell>
        <mxCell id="NCmHVqDDfNP-Vg7z3X-e-79" value="" style="endArrow=classic;html=1;rounded=0;exitX=1;exitY=0.5;exitDx=0;exitDy=0;entryX=0;entryY=0.5;entryDx=0;entryDy=0;" edge="1" parent="1" source="NCmHVqDDfNP-Vg7z3X-e-70" target="NCmHVqDDfNP-Vg7z3X-e-57">
          <mxGeometry width="50" height="50" relative="1" as="geometry">
            <mxPoint x="-280" y="620" as="sourcePoint" />
            <mxPoint x="-240" y="680" as="targetPoint" />
          </mxGeometry>
        </mxCell>
        <mxCell id="NCmHVqDDfNP-Vg7z3X-e-80" value="" style="endArrow=classic;html=1;rounded=0;exitX=1;exitY=0.5;exitDx=0;exitDy=0;entryX=-0.001;entryY=0.521;entryDx=0;entryDy=0;entryPerimeter=0;" edge="1" parent="1" source="NCmHVqDDfNP-Vg7z3X-e-57" target="NCmHVqDDfNP-Vg7z3X-e-50">
          <mxGeometry width="50" height="50" relative="1" as="geometry">
            <mxPoint x="-20" y="520" as="sourcePoint" />
            <mxPoint x="20" y="580" as="targetPoint" />
          </mxGeometry>
        </mxCell>
        <mxCell id="NCmHVqDDfNP-Vg7z3X-e-81" value="" style="endArrow=classic;startArrow=classic;html=1;rounded=0;entryX=0;entryY=0.5;entryDx=0;entryDy=0;exitX=1;exitY=0.5;exitDx=0;exitDy=0;" edge="1" parent="1" source="NCmHVqDDfNP-Vg7z3X-e-50" target="NCmHVqDDfNP-Vg7z3X-e-59">
          <mxGeometry width="50" height="50" relative="1" as="geometry">
            <mxPoint x="150" y="560" as="sourcePoint" />
            <mxPoint x="200" y="510" as="targetPoint" />
          </mxGeometry>
        </mxCell>
      </root>
    </mxGraphModel>
  </diagram>
</mxfile>
